Coordinates
version=1
nRows=29
nColumns=24
inDegrees=yes

Units are S.I. units (second, meters, Newtons, ...)
Angles are in degrees.

endheader
time	pelvis_tilt	pelvis_list	pelvis_rotation	pelvis_tx	pelvis_ty	pelvis_tz	hip_flexion_r	hip_adduction_r	hip_rotation_r	knee_angle_r	ankle_angle_r	subtalar_angle_r	mtp_angle_r	hip_flexion_l	hip_adduction_l	hip_rotation_l	knee_angle_l	ankle_angle_l	subtalar_angle_l	mtp_angle_l	lumbar_extension	lumbar_bending	lumbar_rotation
      1.09183333	     -0.57931109	      0.00432831	     -4.60282901	     -0.02883062	      0.99246960	      0.30518528	    -16.24750071	      2.10370956	      3.99290475	     -7.48413089	     12.36405804	     -9.87139378	      7.22661260	     22.39268874	     -1.56674859	     -7.41947699	      2.78295341	      2.50158654	     -5.99771783	      7.76557028	     -3.14722280	     -0.35864140	     11.84270224
      1.09600000	     -0.58427225	      0.10786393	     -4.67796733	     -0.02269298	      0.99192925	      0.30482752	    -16.35744994	      1.91926378	      3.96230723	     -7.97534337	     12.39296372	     -9.70299545	      7.29087318	     22.41631828	     -1.44930317	     -7.35159030	      2.51992298	      2.51003053	     -6.24895526	      7.78829806	     -3.10158530	     -0.50532183	     11.96472066
      1.10016667	     -0.56579952	      0.22526470	     -4.74046057	     -0.01651562	      0.99145808	      0.30445730	    -16.50425563	      1.72686727	      3.98968290	     -8.43977019	     12.31285805	     -9.70613818	      7.30590959	     22.43708564	     -1.31312565	     -7.31904686	      2.14322556	      2.52675862	     -6.40363100	      7.79473964	     -3.08593967	     -0.65676108	     11.99626101
      1.10433333	     -0.58287226	      0.36291516	     -4.82630870	     -0.01028894	      0.99097753	      0.30407264	    -16.54559457	      1.49849178	      3.89129615	     -9.04133815	     12.39501272	     -9.38437812	      7.41173375	     22.46797778	     -1.15762796	     -7.18586975	      1.75614518	      2.42634752	     -6.79306698	      7.83779819	     -3.00002011	     -0.84304048	     12.20841974
      1.10850000	     -0.54995837	      0.50721408	     -4.89246606	     -0.00401159	      0.99060630	      0.30369050	    -16.66976333	      1.27483568	      3.88804123	     -9.58179640	     12.29429670	     -9.37503494	      7.45407298	     22.47129742	     -0.98973776	     -7.12388145	      1.25803796	      2.38044086	     -7.00581492	      7.85712477	     -2.96352957	     -1.04534619	     12.25400880
      1.11266667	     -0.57153887	      0.66640399	     -4.96696874	      0.00228056	      0.99019377	      0.30325909	    -16.67772667	      1.02794769	      3.80278100	    -10.23531367	     12.29307247	     -9.09478206	      7.62149213	     22.51198581	     -0.80185376	     -6.93698571	      0.76051385	      2.16955722	     -7.45059346	      7.93106621	     -2.88951255	     -1.24123082	     12.43146229
      1.11683333	     -0.55490840	      0.83990350	     -5.03392948	      0.00863500	      0.98987062	      0.30282965	    -16.73058675	      0.76993783	      3.74626083	    -10.88080434	     12.20600931	     -8.95440608	      7.83731974	     22.51611498	     -0.59381373	     -6.78032119	      0.20902058	      1.95927469	     -7.83722400	      8.02914533	     -2.83662884	     -1.46822409	     12.53314003
      1.12100000	     -0.55319911	      1.00361185	     -5.09038982	      0.01502418	      0.98956921	      0.30239186	    -16.76661080	      0.53293251	      3.74303062	    -11.52073879	     11.98591822	     -9.02750580	     11.06982032	     22.53470159	     -0.39133627	     -6.57734932	     -0.37357209	      1.70357474	     -8.27384843	      9.52996739	     -2.76394985	     -1.68006717	     12.56288508
      1.12516667	     -0.53831821	      1.19733101	     -5.15770890	      0.02145378	      0.98932285	      0.30192547	    -16.77048845	      0.25127158	      3.65260403	    -12.25258612	     11.84040579	     -8.83875451	     11.11721199	     22.55587738	     -0.16206920	     -6.48921496	     -1.02199984	      1.44446565	     -8.51676834	      9.55192007	     -2.69953602	     -1.93074787	     12.70418849
      1.12933333	     -0.52954614	      1.38735762	     -5.21414862	      0.02791408	      0.98909950	      0.30144159	    -16.75649755	     -0.01784581	      3.58865997	    -13.00681639	     11.64789756	     -8.74020871	     11.20490125	     22.56870343	      0.07269139	     -6.32188760	     -1.66128552	      1.12177870	     -8.87808087	      9.58793576	     -2.62231514	     -2.17084999	     12.79208959
      1.13350000	     -0.50579930	      1.59877491	     -5.26336024	      0.03443925	      0.98893856	      0.30095780	    -16.75180518	     -0.30470151	      3.53634937	    -13.76988357	     11.38045491	     -8.71546110	     11.28333175	     22.56374596	      0.33163132	     -6.18606284	     -2.31962692	      0.81132241	     -9.15149750	      9.61632225	     -2.55332880	     -2.45918499	     12.85021824
      1.13766667	     -0.49475686	      1.78012621	     -5.31249762	      0.04091569	      0.98878915	      0.30040978	    -16.67966623	     -0.56562837	      3.43766243	    -14.63520751	     11.13937131	     -8.57886761	     11.46937327	     22.56340477	      0.56918422	     -5.96574488	     -2.96413170	      0.38670477	     -9.60000355	      9.67711530	     -2.48064086	     -2.66498774	     12.94237744
      1.14183333	     -0.48306410	      1.98145801	     -5.35468203	      0.04745453	      0.98868901	      0.29986628	    -16.59745803	     -0.84095123	      3.35253865	    -15.51554035	     10.81578262	     -8.52685730	     11.71473852	     22.55864762	      0.82652819	     -5.78862119	     -3.61559570	     -0.03311375	     -9.95961840	      9.74974963	     -2.39822869	     -2.91817638	     12.99986978
      1.14600000	     -0.45204390	      2.18678416	     -5.37959824	      0.05401353	      0.98863954	      0.29928134	    -16.51965983	     -1.11853708	      3.24402644	    -16.42304919	     10.46673330	     -8.44957906	     12.11221722	     22.53952068	      1.09807446	     -5.60477092	     -4.28944973	     -0.45788090	    -10.35260640	      9.85499913	     -2.33673779	     -3.17983440	     13.05719036
      1.15016667	     -0.40342371	      2.39974848	     -5.40637203	      0.06061995	      0.98867525	      0.29872501	    -16.44637130	     -1.39837258	      3.16684166	    -17.34770418	      9.98282029	     -8.50648371	     12.24090167	     22.49814421	      1.36740780	     -5.53133838	     -4.96805646	     -0.82298009	    -10.46897932	      9.88437368	     -2.28941740	     -3.46459451	     13.07056829
      1.15433333	     -0.40909904	      2.59302938	     -5.43389681	      0.06715831	      0.98864798	      0.29808358	    -16.23424140	     -1.66740558	      3.01708382	    -18.42566653	      9.59378810	     -8.37634763	     12.65963823	     22.49948515	      1.62536055	     -5.34194206	     -5.60891269	     -1.28555617	    -10.84571434	      9.97148255	     -2.18290440	     -3.67805510	     13.11956613
      1.15850000	     -0.32939422	      2.80568372	     -5.43384725	      0.07375244	      0.98878477	      0.29745367	    -16.13550265	     -1.94692237	      2.88476839	    -19.44114607	      8.99581072	     -8.53913890	     18.17256733	     22.41390022	      1.91248531	     -5.21722431	     -6.26909340	     -1.68026893	    -11.09900026	     11.01379310	     -2.18050541	     -3.96103172	     13.10745129
      1.16266667	     -0.24453869	      2.98632949	     -5.43793792	      0.08032027	      0.98897451	      0.29680464	    -16.00586618	     -2.19608826	      2.75237127	    -20.51946445	      8.37017646	     -8.55870078	     18.18153000	     22.34008386	      2.15543046	     -5.20035416	     -6.97550603	     -1.99833600	    -11.16877607	     11.01292359	     -2.17769704	     -4.18076016	     13.11430794
      1.16683333	     -0.24767249	      3.19978352	     -5.44888341	      0.08689201	      0.98906792	      0.29613635	    -15.71257087	     -2.48281721	      2.59316095	    -21.72541310	      7.81101097	     -8.45949634	     18.26352986	     22.32729776	      2.42958405	     -5.11403512	     -7.60840644	     -2.37273488	    -11.31974139	     11.01607255	     -2.06898779	     -4.43830894	     13.12465899
      1.17100000	     -0.21491059	      3.39239234	     -5.43247558	      0.09342483	      0.98923927	      0.29542738	    -15.44386540	     -2.74048339	      2.43008413	    -22.94676994	      7.19100864	     -8.42854159	     18.42735666	     22.29388309	      2.69176821	     -5.03915352	     -8.28325724	     -2.69540717	    -11.49486174	     11.01824221	     -2.01825330	     -4.67641581	     13.12016357
      1.17516667	     -0.13704291	      3.59765739	     -5.42285607	      0.09996194	      0.98953090	      0.29471103	    -15.19475959	     -3.02242277	      2.25834542	    -24.19709060	      6.45193052	     -8.46676853	     21.05782618	     22.16412137	      2.98053310	     -4.90576861	     -8.86026309	     -3.03600393	    -11.77080653	     11.02253160	     -2.01425553	     -4.92634075	     13.10359123
      1.17933333	     -0.07387083	      3.78933060	     -5.39319213	      0.10647464	      0.98981592	      0.29399943	    -14.90524656	     -3.27700910	      2.09956028	    -25.49092872	      5.70039781	     -8.50847399	     21.08227877	     22.08782332	      3.23787452	     -4.91186529	     -9.52478610	     -3.21951138	    -11.71771904	     11.01954224	     -2.00210037	     -5.17669259	     13.06921149
      1.18350000	     -0.05592455	      3.96713788	     -5.36740833	      0.11293299	      0.99006313	      0.29325225	    -14.51051855	     -3.52294747	      1.93199348	    -26.87753010	      4.97065734	     -8.51921682	     21.16078433	     22.05304653	      3.47692411	     -4.92103249	    -10.17511141	     -3.39299993	    -11.69159800	     11.01026152	     -1.92656021	     -5.37000666	     13.01697375
      1.18766667	      0.00731540	      4.15030268	     -5.33238333	      0.11935113	      0.99039964	      0.29249888	    -14.14321755	     -3.77564868	      1.76631026	    -28.28562950	      4.18833660	     -8.55658074	     21.25951558	     21.95379748	      3.73193125	     -4.90927630	    -10.79363747	     -3.53113230	    -11.68741341	     10.99631394	     -1.92077670	     -5.59101694	     12.96310694
      1.19183333	      0.05798923	      4.32769716	     -5.29085664	      0.12574174	      0.99075371	      0.29173943	    -13.73324253	     -4.01976374	      1.60982789	    -29.73108808	      3.37822262	     -8.61665388	     21.36557102	     21.85588838	      3.98202338	     -4.89642714	    -11.39187071	     -3.63163287	    -11.67938962	     10.97830867	     -1.89935303	     -5.80325427	     12.89825186
      1.19600000	      0.14552015	      4.51098873	     -5.24707557	      0.13208441	      0.99118266	      0.29098131	    -13.33856892	     -4.27245432	      1.46497398	    -31.20288041	      2.54870293	     -8.68289529	     21.42300594	     21.70192892	      4.24587086	     -4.86947095	    -11.95628129	     -3.68291607	    -11.67533294	     10.96557976	     -1.93804877	     -6.03999602	     12.84037787
      1.20016667	      0.19931624	      4.68926234	     -5.20451954	      0.13837168	      0.99158651	      0.29022175	    -12.86631985	     -4.51980784	      1.32791200	    -32.73149616	      1.73682559	     -8.76626135	     21.48609355	     21.57100338	      4.50102357	     -4.85141865	    -12.49310877	     -3.71373116	    -11.65894636	     10.94724264	     -1.93463956	     -6.24906339	     12.76127621
      1.20433333	      0.24934739	      4.85843182	     -5.15368295	      0.14461219	      0.99200331	      0.28944662	    -12.36608597	     -4.75512064	      1.19901434	    -34.28663746	      0.93565193	     -8.87170323	     21.54090896	     21.43475967	      4.75122900	     -4.82958752	    -13.01306606	     -3.70246328	    -11.64411640	     10.92420542	     -1.92447850	     -6.45176724	     12.67301127
      1.20850000	      0.36682155	      5.01701810	     -5.08907313	      0.15075990	      0.99251995	      0.28865565	    -11.92254762	     -4.98328010	      1.05444842	    -35.84794119	      0.16191858	     -8.97662946	     21.55288767	     21.22782913	      5.00247594	     -4.80846411	    -13.53727144	     -3.64420266	    -11.66802077	     10.91366463	     -2.03025651	     -6.63684116	     12.61179153
